<?xml version="1.0" encoding="utf-8"?>
<!-- Generator: Adobe Illustrator 12.0.0, SVG Export Plug-In . SVG Version: 6.00 Build 51448)  -->
<!DOCTYPE svg PUBLIC "-//W3C//DTD SVG 1.1//EN" "http://www.w3.org/Graphics/SVG/1.1/DTD/svg11.dtd" [
	<!ENTITY ns_svg "http://www.w3.org/2000/svg">
	<!ENTITY ns_xlink "http://www.w3.org/1999/xlink">
]>
<svg  version="1.1" id="Ebene_1" xmlns="&ns_svg;" xmlns:xlink="&ns_xlink;" width="1286.922" height="509.521"
	 viewBox="0 0 1286.922 509.521" overflow="visible" enable-background="new 0 0 1286.922 509.521" xml:space="preserve">
<g>
	<path fill="#BD007B" d="M168.833,429.876c-38.501,39.277-101.495,40.541-139.986,2.811c-6.537-6.408-11.936-13.557-16.252-21.184
		c6.414,12.541,15.565,23.957,27.341,33.256l82.02,64.762h316.28L242.366,354.863L168.833,429.876z"/>
	<path fill="#E2007A" d="M168.833,429.876l73.533-75.014l0.335-0.342l93.124-95l89.216-91.014
		c38.501-39.277,38.509-102.283,0.018-140.014S323.573-7.974,285.072,31.303L61.362,259.521l-32.498,33.152
		c-17.04,17.383-26.524,39.416-28.484,61.848c-1.715,19.643,2.364,39.58,12.214,56.982c4.316,7.627,9.715,14.775,16.252,21.184
		C67.338,470.417,130.333,469.154,168.833,429.876z"/>
	<path fill="#E95D0F" d="M796.076,464.966L656.199,354.521l-0.833-0.658l-0.646,0.658l-72.888,74.355
		c-38.5,39.277-101.494,40.541-139.986,2.811c-6.536-6.406-11.934-13.555-16.25-21.18c6.414,12.539,15.564,23.955,27.339,33.252
		l83.286,65.762h316.279L796.076,464.966"/>
	<path fill="#F29400" d="M581.833,428.876l72.888-74.355l0.646-0.658l92.478-94.342l90.196-92.014
		c38.502-39.277,38.51-102.283,0.018-140.014c-38.49-37.731-101.484-36.466-139.986,2.811l-224.69,229.218l-31.517,32.152
		c-17.293,17.641-26.793,40.072-28.554,62.848c-1.494,19.32,2.603,38.877,12.287,55.986c4.316,7.625,9.714,14.773,16.25,21.18
		C480.339,469.417,543.333,468.154,581.833,428.876z"/>
	<path fill="#0086CB" d="M1075.366,353.863l-0.646,0.658l-72.888,74.355c-38.5,39.277-101.494,40.541-139.986,2.811
		c-6.536-6.406-11.934-13.555-16.25-21.18c6.414,12.539,15.564,23.955,27.339,33.252l83.286,65.762h316.279l-196.302-155
		L1075.366,353.863z"/>
	<path fill="#009EE0" d="M1001.833,428.876l72.888-74.355l0.646-0.658l92.478-94.342l90.196-92.014
		c38.502-39.277,38.51-102.283,0.018-140.014c-38.49-37.731-101.484-36.466-139.986,2.811L893.382,259.521l-31.518,32.152
		c-17.293,17.641-26.793,40.072-28.555,62.848c-1.493,19.32,2.604,38.877,12.287,55.986c4.316,7.625,9.714,14.773,16.25,21.18
		C900.339,469.417,963.333,468.154,1001.833,428.876z"/>
</g>
</svg>
